# xmcd CD database file
#
# Track frame offsets:
#	150
#	27870
#	55502
#	76117
#	108805
#	132137
#	164930
#	200925
#	228510
#	260805
#
# Disc length: 3974 seconds
#
# Revision: 0
# Processed by: cddbd v1.5.2PL0 Copyright (c) Steve Scherf et al.
# Submitted via: CDex 1.91
#
DISCID=860f840a
DTITLE=Jack Nimitz Quintet - Sunday Afternoons atThe Lighthouse Cafe
DYEAR=2004
DGENRE=Jazz
TTITLE0=Softly, As In A Morning Suinrise
TTITLE1=I Love You
TTITLE2=Over The Rainbow
TTITLE3=Nostalgia
TTITLE4=Tobacco Leaf Blues
TTITLE5=Song For Diana
TTITLE6=Body And Soul
TTITLE7=I'm Confessin' That I Love You
TTITLE8=Jitterbug Waltz
TTITLE9=What Is This Thing Called Love
EXTD=YEAR: 2004
EXTT0=
EXTT1=
EXTT2=
EXTT3=
EXTT4=
EXTT5=
EXTT6=
EXTT7=
EXTT8=
EXTT9=
PLAYORDER=
